<svg width="37" height="37" fill="none" xmlns="http://www.w3.org/2000/svg"><g clip-path="url('#clip0_16_14')"><path d="M25.438 18.5c0 1.604-.087 3.15-.239 4.625H11.801a45.175 45.175 0 0 1 0-9.25h13.398c.159 1.474.238 3.02.238 4.625Zm2.08-4.625h8.897c.383 1.481.585 3.028.585 4.625s-.202 3.144-.585 4.625h-8.896c.152-1.489.231-3.035.231-4.625 0-1.59-.08-3.136-.231-4.625Zm8.138-2.313h-8.433C26.5 6.946 25.069 3.08 23.226.607A18.536 18.536 0 0 1 35.65 11.563h.007Zm-10.775 0H12.12c.44-2.63 1.12-4.957 1.951-6.843.759-1.706 1.604-2.941 2.421-3.722C17.301.231 17.973 0 18.5 0c.527 0 1.2.231 2.009.997.817.78 1.662 2.016 2.42 3.722.84 1.879 1.511 4.206 1.952 6.843Zm-15.103 0H1.344A18.548 18.548 0 0 1 13.774.607C11.93 3.079 10.5 6.945 9.778 11.563ZM.585 13.876h8.896A45.658 45.658 0 0 0 9.25 18.5c0 1.59.08 3.136.231 4.625H.585A18.435 18.435 0 0 1 0 18.5c0-1.597.202-3.144.585-4.625ZM14.07 32.274c-.838-1.88-1.51-4.206-1.951-6.837H24.88c-.44 2.631-1.12 4.958-1.951 6.837-.759 1.705-1.604 2.941-2.421 3.721C19.699 36.77 19.027 37 18.5 37c-.527 0-1.2-.231-2.009-.997-.817-.78-1.662-2.017-2.42-3.722v-.007Zm-4.292-6.837c.722 4.618 2.153 8.485 3.996 10.956a18.548 18.548 0 0 1-12.43-10.956h8.434Zm25.878 0a18.551 18.551 0 0 1-12.423 10.956c1.843-2.471 3.267-6.338 3.997-10.956h8.426Z" fill="#000"/></g><defs><clipPath id="clip0_16_14"><path fill="#fff" d="M0 0h37v37H0z"/></clipPath></defs></svg>