<svg width="174" height="142" fill="none" xmlns="http://www.w3.org/2000/svg"><path d="M28.82.041c.045.09.758 1.188 1.574 2.42.832 1.247 1.485 2.27 1.455 2.3-.03.03-.95-.014-2.049-.103-2.39-.179-6.694-.06-9.025.252-6.353.846-11.31 3.028-14.799 6.531-8.164 8.15-7.956 22.28.58 39.93 4.853 10.02 12.186 20.588 21.775 31.335 1.855 2.078 1.885 2.123 1.974 2.969.817 6.932 3.37 14.71 6.903 21.063a59.383 59.383 0 0 0 9.945 13.137c3.874 3.859 7.154 6.442 11.519 9.04 9.351 5.566 19.43 8.327 30.34 8.327 4.676 0 7.407-.282 12.113-1.202l2.375-.475 2.152.771c5.878 2.093 12.469 3.786 17.961 4.602 3.562.52 5.492.668 9.129.668 3.859-.015 5.937-.223 8.965-.891 8.165-1.825 13.85-6.62 16.18-13.641.95-2.88 1.277-5.463 1.158-9.337-.208-7.258-2.583-15.274-7.318-24.581-1.187-2.345-3.102-5.774-3.355-6.012-.074-.089.164.416.55 1.113 1.128 2.064 3.384 6.754 4.304 8.966 1.678 4.052 2.969 8.476 3.667 12.484.282 1.647.326 2.464.326 5.566 0 3.221-.029 3.815-.326 5.195-.965 4.424-2.643 7.571-5.537 10.317-14.072 13.433-50.647 4.527-86.376-21.004-9.737-6.962-17.783-13.775-26.214-22.192-7.481-7.466-12.914-13.775-18.05-20.93C7.416 48.106 1.91 31.45 5.234 19.903c2.316-8 8.847-12.944 18.777-14.235 2.33-.297 5.626-.445 7.155-.327l1.277.12.801 1.201c.446.668.935 1.41 1.084 1.648l.282.43-1.544-.103c-2.553-.193-6.71-.12-8.728.148-7.526.965-12.795 4.245-15.527 9.678-1.395 2.776-1.93 5.3-1.93 9.233 0 3.86.594 7.407 1.99 11.8 5.254 16.463 20.454 36.858 40.672 54.566 22.696 19.861 48.82 34.408 69.988 38.95 8.802 1.886 16.937 1.886 22.577 0 6.71-2.241 10.777-6.887 12.024-13.745.341-1.87.341-6.279 0-8.446-.861-5.448-2.613-10.658-5.685-16.907l-1.559-3.177.163-.83c.267-1.381.624-3.474.683-4.024 1.455-12.171-.445-23.557-5.73-34.185l-1.172-2.345.297-1.81c.549-3.49 1.009-8.432 1.083-11.757l.03-1.484.401.846c.519 1.083 1.499 4.067 1.825 5.536.149.624.312 1.084.372 1.01.074-.06.341-.654.623-1.307l.49-1.187.104.742c.044.4.133 2.316.193 4.23.044 1.915.118 3.786.163 4.142l.089.653.802-.802c.43-.43.831-.757.861-.712.044.03.148 1.099.252 2.36.163 2.138.119 5.121-.104 9.723l-.074 1.633.683-1.04c.964-1.469 2.597-4.809 3.25-6.62.921-2.627 1.292-4.497 1.381-7.199.133-3.77-.475-6.59-2.123-9.93-1.232-2.48-2.494-4.142-5.165-6.828-1.307-1.307-2.108-2.182-1.797-1.945 2.88 2.123 6.072 5.047 7.511 6.843.357.445.683.816.728.816.044 0 .044-.623.029-1.365-.044-.95-.014-1.336.104-1.232.238.237 2.212 3.68 3.503 6.13.654 1.232 1.218 2.256 1.277 2.256.045 0 .223-.475.416-1.039.178-.579.386-1.039.46-1.039.415 0 3.933 6.769 5.492 10.54.356.86.698 1.617.742 1.677.193.222.445-2.88.445-5.359-.014-7.08-2.078-12.305-6.575-16.61-1.707-1.618-3.563-2.895-5.953-4.067-1.677-.817-5.492-2.212-6.056-2.212-.148 0-.267-.074-.267-.163 0-.119.891-.149 3.236-.09 2.88.075 4.705.268 5.833.624.253.09.06-.223-.742-1.113-.594-.668-1.039-1.247-.994-1.292.089-.089 4.082 1.604 6.754 2.865 1.098.52 2.004.95 2.033.95.03 0-.222-.579-.549-1.276-.327-.713-.564-1.321-.52-1.351.282-.297 7.853 3.4 11.415 5.566.55.342.995.564.995.505-.015-.208-2.553-3.696-3.785-5.18-4.127-4.958-9.04-8.001-13.983-8.67-3.563-.474-7.912.52-11.638 2.673-.682.4-1.276.697-1.306.668-.133-.12 1.692-2.524 2.85-3.726l1.321-1.366-.727-.089c-.386-.044-.817-.104-.935-.119-.282-.044.89-.757 3.221-1.989 1.009-.534 1.826-1.009 1.826-1.083 0-.074-.297-.238-.668-.386-.371-.134-.668-.297-.668-.371 0-.342 3.755-2.286 6.427-3.325 1.722-.683 1.692-.728-.935-.965-3.815-.356-7.823.505-10.272 2.197-1.959 1.35-3.666 3.978-4.602 7.036-.178.638-.371 1.158-.415 1.158-.045 0-.238-.446-.431-1.01-1.217-3.4-3.429-6.635-5.522-8.03-3.028-2.02-8.357-2.435-13.047-.995-.787.238-.891.178 1.989.98 2.226.608 4.987 1.603 5.507 1.989.252.178.223.223-.416.608-.386.223-.697.446-.697.49 0 .06.697.357 1.543.653 2.39.876 4.097 1.618 4.008 1.767-.193.312-1.247.133-2.019-.371-4.364-2.776-9.188-3.206-13.893-1.217-2.078.875-4.765 2.671-6.576 4.393-.668.639-.742.757-.431.683 4.513-1.039 10.094-1.855 10.094-1.484 0 .06-.237.43-.534.831-.297.4-.52.742-.49.772.03.015 1.232-.104 2.657-.282 3.087-.386 4.602-.52 4.602-.386 0 .045-.416.356-.921.683l-.905.579 1.618.252c2.79.43 5.136 1.173 7.525 2.39 1.574.801 1.826 1.069.535.549-2.806-1.113-6.205-2.063-8.892-2.45-1.321-.192-2.36-.222-4.527-.163-2.508.06-3.013.12-4.527.52-3.073.787-5.581 2.078-8.031 4.127l-1.172.98-1.975-.535c-2.582-.698-5.12-1.202-8.12-1.603-2.107-.282-3.131-.327-7.273-.342-3.087 0-5.418.075-6.457.193-12.172 1.455-22.68 5.953-31.914 13.657-2.093 1.751-6.086 5.848-7.852 8.045-3.37 4.216-6.1 8.713-8.164 13.434-.816 1.87-1.87 4.646-2.227 5.907-.133.475-.311.817-.386.772-.222-.133-2.953-4.111-4.334-6.308C18 39.08 15.372 25.72 20.597 17.913c.95-1.41 2.717-3.191 4.008-4.037 2.613-1.722 6.027-2.85 9.797-3.236 1.47-.149 1.41-.193 2.538 1.692.787 1.32.995 1.425 3.978 1.855 3.073.43 5.849.609 11.386.698l5.061.089 2.271 3.473c2.271 3.459 2.286 3.489 2.732 3.4.252-.06 1.039-.208 1.736-.327l1.277-.238 1.47-3.28 1.484-3.295 2.212-.104c8.12-.386 15.6-1.232 18.762-2.138 3.592-1.024 4.141-2.211 1.648-3.473-3.058-1.544-8.758-2.969-13.657-3.414-3.31-.297-5.64-.178-9.945.52-1.262.192-3.414.504-4.765.667l-2.464.312-2.954-1.44c-1.618-.787-4.126-2.004-5.551-2.701l-2.598-1.262-1.855-.074-1.856-.06L46.5 2.787c.653.668 2.048 2.093 3.087 3.162 1.692 1.737 1.84 1.944 1.544 2.034-.178.044-1.648.207-3.266.34-3.295.283-3.013.327-4.26-.815l-.668-.61.49.09c.727.148.564-.03-.178-.193-.55-.119-1.217-.594-3.845-2.79l-3.176-2.643-3.74-.757C29.992.1 28.775-.092 28.82.041Zm90.562 23.898a93.247 93.247 0 0 1-.86 1.515c-.297.504-.297.504-.015.4 2.345-.98 5.551-1.84 8.223-2.226 1.648-.238 5.314-.49 5.195-.342-.044.045-1.143.327-2.449.624-2.716.623-6.62 1.87-8.669 2.746l-1.395.594-1.677-.936c-.92-.504-1.692-.964-1.692-1.024 0-.104 3.562-2.345 3.755-2.345.074 0-.119.445-.416.994Zm-25.086.624c1.425.148 3.37.416 3.86.52.163.03.594.103.965.163.727.119 3.577.787 3.651.846.015.03-.193.416-.475.86-.712 1.129-1.989 3.756-2.79 5.76-.653 1.603-.787 2.108-.594 2.108.044 0 .727-.564 1.514-1.232 2.969-2.568 7.199-5.745 7.63-5.745.311 0 3.354 1.262 5.076 2.108l.728.357-1.099.801c-1.573 1.128-4.201 3.845-5.314 5.463-1.781 2.642-2.954 5.462-3.607 8.698-.282 1.38-.326 2.123-.326 4.542 0 1.589.089 3.459.178 4.157.282 2.048.653 3.859.772 3.859.059 0 .267-.416.46-.935 1.276-3.474 4.215-9.678 5.715-12.098.475-.742.905-1.366.964-1.366.045 0 .342.564.653 1.262.312.698.609 1.262.654 1.247.044 0 .564-.935 1.128-2.078 1.44-2.865 4.171-7.778 4.319-7.778.074 0 .164.727.208 1.618l.074 1.618.698-.876c.371-.49 1.113-1.336 1.648-1.915l.95-1.039.653.55c.356.296.905.756 1.232 1.038l.564.505-.653 1.321c-1.262 2.509-1.782 4.423-2.049 7.57-.415 4.884.891 11.386 3.325 16.403l.609 1.261.03-1.039c.207-6.115.593-11.073 1.053-13.136l.119-.52.802.995c.935 1.143.95 1.128 1.098-.772.045-.698.238-2.553.416-4.112.267-2.39.356-2.835.519-2.687.668.55 3.904 4.928 5.077 6.843l.623 1.01-.697 2.553c-1.5 5.61-3.325 10.48-5.849 15.615-3.34 6.799-6.65 11.504-11.489 16.329-2.583 2.582-4.676 4.334-7.362 6.16-1.945 1.306-4.958 3.028-6.828 3.889l-1.247.579-3.325-.149c-1.826-.089-3.978-.163-4.795-.163-1.395 0-1.529-.03-2.553-.534-4.453-2.242-8.877-6.353-11.712-10.925-1.736-2.806-3.22-6.368-4.2-10.139-1.07-4.067-1.41-6.739-1.5-11.652l-.074-3.934.757.817c1.01 1.083 2.375 3.147 3.147 4.78.356.712.683 1.306.727 1.306.045 0 .164-.356.282-.787l.193-.772.178.445c.104.238.401 1.574.668 2.954l.49 2.509.49-.579c.267-.312.52-.534.579-.49.282.297 1.262 6.071 1.262 7.481 0 1.01.178 1.04.549.134 1.41-3.429 1.87-8.06 1.084-11.103-.654-2.598-2.554-5.18-5.344-7.333a128.21 128.21 0 0 1-1.395-1.084c-.223-.193 1.944.446 3.176.936.609.237 1.737.757 2.494 1.157.742.401 1.365.668 1.365.609 0-.074-.103-.416-.222-.757-.253-.727-.267-.89-.09-.89.075 0 1.129.964 2.36 2.152 1.218 1.172 2.257 2.108 2.317 2.048.044-.044.089-.416.089-.816 0-.535.059-.713.222-.713.312 0 3.207 2.91 4.884 4.943.801.965 1.484 1.722 1.499 1.707.104-.104-.4-2.998-.742-4.2-1.544-5.493-5.196-8.892-10.613-9.887-1.455-.267-5.893-.237-7.526.045-.683.119-1.232.178-1.232.134 0-.045.549-.401 1.232-.787 1.32-.742 3.533-1.603 4.898-1.915.46-.104.846-.223.846-.282 0-.044-.282-.237-.623-.4l-.638-.327h2.582l2.598-.015-.4-.416c-.223-.222-.401-.46-.401-.52 0-.148 4.17-.118 5.774.045.772.09 1.425.119 1.47.09.103-.12-2.005-1.426-3.133-1.945-2.078-.965-3.087-1.188-5.225-1.188-1.588 0-2.122.06-2.998.342-1.069.326-1.084.326-1.618.06l-.535-.283.49-.282c.594-.356 3.503-1.573 4.364-1.84.327-.105.653-.238.728-.297.208-.194-1.5-.372-3.355-.342-4.943.06-7.734 2.078-9.456 6.828l-.4 1.099-.282-.639c-.401-.905-1.218-2.182-1.767-2.76-1.662-1.782-4.66-2.569-8.03-2.123-1.53.208-2.598.445-2.598.593 0 .06.876.342 1.96.654 1.068.297 2.33.727 2.775.935l.832.386-.475.237c-.268.134-.49.268-.49.327 0 .044.683.341 1.529.638.83.312 1.677.653 1.885.772l.37.208-.534.015c-.296 0-.578.044-.623.089-.06.06.223.326.609.623.801.594 2.256 1.974 2.256 2.138 0 .059-.416-.09-.935-.342-.52-.237-1.603-.608-2.42-.816-1.291-.327-1.692-.371-3.325-.312-2.27.074-3.636.475-5.492 1.603-1.677 1.024-4.037 3.4-5.433 5.478-1.083 1.603-1.603 2.508-1.514 2.612.03.03.594-.297 1.247-.742 2.39-1.603 6.19-3.666 6.383-3.474.03.045-.074.401-.238.787-.163.386-.282.728-.252.757.03.03 1.232-.549 2.687-1.291 1.44-.742 2.657-1.321 2.687-1.292.03.03-.179.342-.46.698-.283.356-.476.683-.446.727.045.03.49-.044 1.01-.178 1.41-.341 3.77-.579 5.002-.475.608.045 1.128.104 1.157.149.03.03-.4.4-.95.831-1.35 1.054-3.22 2.954-4.185 4.23-1.025 1.351-2.004 3.414-2.33 4.899-.684 3.028-.09 7.689 1.394 10.91l.371.816.268-2.582c.252-2.509.787-5.67 1.01-6.072.088-.148.222-.059.519.327.222.297.46.505.52.46.073-.03.162-.415.222-.846.208-1.514.846-4.794.965-4.913.074-.074.207.208.311.623.164.683.446 1.04.446.564 0-.282 1.365-3.028 2.078-4.186.712-1.157 2.375-3.384 2.464-3.31.03.03-.015.297-.09.58-.073.281-.281 1.365-.474 2.434-.267 1.603-.327 2.508-.327 5.417-.015 3.637.119 4.958.742 8.06.743 3.682 1.752 6.577 3.548 10.273 1.87 3.83 4.602 7.703 7.259 10.316l.98.95-1.856.49c-2.242.593-5.136 1.618-7.036 2.508l-1.395.654-1.203-.847c-2.048-1.425-6.724-4.942-9.218-6.946-9.07-7.259-18.183-16.12-25.16-24.463l-1.098-1.321.43-1.648c2.197-8.669 6.175-16.031 12.647-23.32 2.434-2.76 7.036-6.59 10.791-8.995 1.856-1.172 6.339-3.488 8.476-4.349 1.99-.801 5.448-1.93 7.185-2.345.697-.163 1.514-.356 1.796-.416.282-.074.816-.178 1.187-.237.371-.06.802-.134.965-.163.698-.149 2.509-.372 4.156-.52.98-.074 1.856-.178 1.93-.208.252-.119 6.917.06 8.313.208Zm40.435 2.152a88.8 88.8 0 0 1-1.618 1.277c-.861.683-2.449 2.122-3.533 3.221l-1.989 1.974-.727-.623c-.401-.327-.728-.653-.728-.713 0-.104 2.598-1.96 3.86-2.76 1.306-.817 5.151-2.762 4.735-2.376Zm3.874 1.589c0 2.627-1.351 14.443-1.692 14.784-.03.03-.505-.534-1.069-1.247a84.571 84.571 0 0 0-2.167-2.612l-1.143-1.307.49-1.365c1.276-3.548 2.82-6.858 4.067-8.788l.668-1.039.416.52c.297.356.43.668.43 1.054ZM78.636 46.903c0 .163-1.692 1.143-1.9 1.098-.163-.044.149-.267.787-.608 1.128-.58 1.113-.58 1.113-.49Zm61.35 13.998c1.187 3.562 1.692 5.625 2.256 9.203.356 2.285.401 2.197-1.306 2.954-1.989.86-4.661 2.39-6.354 3.636-.757.564-1.499 1.084-1.632 1.158-.164.104.044-.609.638-2.182 1.781-4.735 4.483-13.285 5.166-16.402.103-.46.237-.846.296-.846.06 0 .49 1.113.936 2.479Zm2.79 19.103c-.252 3.77-.267 3.89-.445 5.21a68.597 68.597 0 0 0-.193 1.485c-.03.163-.341.534-.713.831-.979.802-3.161 3.117-4.349 4.661-.415.534-1.44 2.019-1.44 2.078 0 .045-.222.401-.489.787-.268.386-.594.89-.728 1.143a390.62 390.62 0 0 0-2.553 5.121c-1.707 3.607-3.681 6.457-6.309 9.07-2.137 2.122-4.72 3.918-6.828 4.75-.46.178-1.024.415-1.276.504-1.648.683-4.008 1.351-7.333 2.078l-2.434.535-1.054-.371c-7.63-2.687-18.392-8.031-26.437-13.122a154.679 154.679 0 0 0-2.731-1.707l-.52-.312.787-.341c2.316-1.025 5.937-1.989 9.366-2.524 1.841-.282 6.071-.326 16.477-.193 4.245.045 5.21.015 6.576-.208 4.601-.742 7.926-2.107 11.667-4.78 1.9-1.365 5.744-5.21 7.986-8 3.458-4.305 6.962-7.184 11.593-9.515l1.291-.638.134.386c.074.222.059 1.47-.045 3.072ZM42.833 97.297c4.186 3.815 8.892 7.734 13.508 11.282l2.553 1.974-.772.89c-1.692 1.945-2.73 3.236-3.948 4.914l-1.262 1.751-1.707-1.677c-6.071-6.012-10.88-13.775-13.315-21.494-.222-.697-.534-1.662-.682-2.137-.149-.49-.283-.906-.283-.95 0-.03.876.757 1.945 1.766 1.069 1.01 2.85 2.672 3.963 3.681Zm104.574-3.147c1.693 5.047 2.405 9.723 2.049 13.404-.445 4.424-1.9 7.571-4.735 10.257-3.31 3.132-7.719 4.676-13.909 4.839l-2.82.075 1.959-1.871c6.977-6.694 12.098-14.754 15.185-23.913.386-1.143.861-2.701 1.054-3.459.193-.742.386-1.365.446-1.365.044 0 .4.92.771 2.033Zm-78.122 23.691c2.731 1.826 5.388 3.577 5.908 3.874.504.312 1.024.653 1.143.772.118.134.222.193.222.149 0-.045.356.133.787.386 1.425.846 5.804 3.31 6.813 3.829.564.282 1.01.564 1.01.609 0 .059-.282.326-.624.594-.831.668-2.449 2.122-3.043 2.746-.475.49-.49.49-1.336.341-.475-.074-1.054-.178-1.306-.208a12.52 12.52 0 0 1-.92-.208c-.253-.074-.505-.103-.55-.044-.044.044-.089.015-.089-.059 0-.075-.118-.149-.252-.149-.623-.03-4.32-.994-4.81-1.247-.252-.133-.8-.341-1.914-.668-.045-.015-.178-.074-.297-.118a36.035 36.035 0 0 0-1.188-.475c-.118-.03-.875-.372-1.707-.743-.4-.193-1.113-.489-1.558-.682-.742-.312-1.544-.743-3.785-1.99-.772-.445-3.578-2.256-3.89-2.523-.088-.074-.549-.416-.994-.727-.46-.327-.831-.668-.831-.772 0-.386 2.91-4.186 5.017-6.546l.965-1.084 1.128.817c.623.445 3.37 2.3 6.1 4.126Zm17.56 14.013a.802.802 0 0 1-.371 0c-.104-.045-.03-.075.178-.075s.282.03.193.075Zm4.602 0a.802.802 0 0 1-.372 0c-.103-.045-.03-.075.179-.075.207 0 .282.03.192.075Z" fill="#000"/><path d="M44.17 7.166c.103.045.237.03.281-.015.06-.044-.03-.089-.193-.074-.163 0-.208.045-.089.09ZM44.763 7.315c.104.044.237.03.282-.015.06-.045-.03-.09-.193-.075-.163 0-.208.045-.09.09Z" fill="#000"/></svg>