<svg width="116" height="95" fill="none" xmlns="http://www.w3.org/2000/svg"><path d="M19.215.36c.03.06.5.792 1.041 1.614.55.831.983 1.514.963 1.534-.02.02-.629-.01-1.356-.07-1.582-.118-4.432-.04-5.975.169C9.682 4.17 6.4 5.625 4.09 7.96c-5.405 5.433-5.268 14.853.383 26.62 3.214 6.68 8.069 13.725 14.417 20.89 1.229 1.385 1.248 1.415 1.307 1.979.54 4.621 2.231 9.807 4.57 14.042a39.555 39.555 0 0 0 6.585 8.758c2.565 2.573 4.737 4.295 7.626 6.026 6.191 3.711 12.864 5.552 20.087 5.552 3.096 0 4.904-.188 8.02-.802l1.572-.316 1.425.514c3.892 1.396 8.255 2.524 11.892 3.068 2.358.346 3.636.445 6.044.445 2.555-.01 3.93-.148 5.935-.593 5.406-1.218 9.17-4.414 10.713-9.095.628-1.92.845-3.641.766-6.224-.138-4.84-1.71-10.183-4.845-16.388-.786-1.563-2.054-3.85-2.221-4.008-.05-.059.108.278.364.743.746 1.375 2.24 4.502 2.85 5.977 1.11 2.701 1.965 5.65 2.427 8.322.187 1.099.216 1.643.216 3.711 0 2.147-.019 2.543-.216 3.464-.639 2.949-1.749 5.046-3.666 6.877-9.316 8.956-33.531 3.019-57.186-14.002-6.447-4.642-11.774-9.184-17.356-14.795-4.953-4.977-8.55-9.183-11.95-13.953C5.043 32.403 1.397 21.3 3.599 13.601c1.533-5.333 5.857-8.629 12.431-9.49 1.543-.198 3.725-.297 4.737-.217l.846.079.53.801c.295.446.62.94.718 1.099l.186.287-1.022-.07c-1.69-.128-4.442-.079-5.778.1-4.983.643-8.472 2.83-10.28 6.452-.924 1.85-1.278 3.532-1.278 6.155 0 2.573.394 4.938 1.317 7.867C9.486 37.638 19.55 51.235 32.934 63.04 47.96 76.281 65.257 85.98 79.27 89.008c5.828 1.256 11.213 1.256 14.948 0 4.442-1.495 7.135-4.592 7.96-9.164.226-1.247.226-4.186 0-5.63-.57-3.632-1.73-7.106-3.764-11.272l-1.032-2.118.108-.554c.177-.92.413-2.316.452-2.682.963-8.114-.294-15.704-3.793-22.79l-.776-1.563.196-1.208c.364-2.325.668-5.62.718-7.837l.02-.99.265.564c.344.723.992 2.712 1.208 3.692.099.415.207.722.246.672.05-.04.226-.435.413-.87l.324-.792.069.495c.03.267.088 1.544.128 2.82.03 1.277.078 2.523.108 2.761l.059.435.53-.534c.285-.287.55-.505.57-.475.03.02.099.732.168 1.573.108 1.426.078 3.415-.07 6.482l-.048 1.089.452-.693c.638-.98 1.719-3.206 2.152-4.413.609-1.752.855-2.999.914-4.8.088-2.514-.315-4.394-1.405-6.62-.816-1.653-1.651-2.761-3.42-4.552-.865-.871-1.396-1.455-1.19-1.297 1.907 1.415 4.02 3.365 4.973 4.562.236.297.452.545.482.545.029 0 .029-.416.019-.91-.029-.634-.009-.892.069-.822.157.158 1.464 2.454 2.319 4.087.433.821.806 1.504.846 1.504.029 0 .147-.317.275-.693.118-.386.255-.693.304-.693.276 0 2.605 4.513 3.637 7.027.236.573.462 1.078.491 1.118.128.148.295-1.92.295-3.573-.01-4.72-1.376-8.203-4.354-11.073-1.13-1.079-2.358-1.93-3.941-2.711-1.11-.545-3.636-1.475-4.01-1.475-.098 0-.176-.05-.176-.109 0-.079.59-.099 2.142-.06 1.907.05 3.116.179 3.862.416.168.06.04-.148-.491-.742-.393-.445-.688-.831-.658-.86.059-.06 2.702 1.068 4.471 1.91.727.346 1.327.633 1.347.633.019 0-.148-.386-.364-.852-.216-.474-.373-.88-.344-.9.187-.198 5.199 2.266 7.557 3.71.364.229.659.377.659.337-.01-.138-1.69-2.464-2.506-3.453-2.732-3.306-5.985-5.334-9.258-5.78-2.358-.316-5.238.347-7.705 1.782-.452.267-.845.465-.864.445-.089-.08 1.12-1.682 1.886-2.484l.875-.91-.481-.06c-.256-.03-.54-.069-.62-.079-.186-.03.59-.504 2.133-1.326.668-.356 1.209-.673 1.209-.722 0-.05-.197-.158-.442-.257-.246-.09-.443-.198-.443-.248 0-.227 2.487-1.524 4.256-2.216 1.14-.456 1.12-.485-.619-.644-2.526-.237-5.18.337-6.801 1.465-1.297.9-2.428 2.652-3.047 4.69-.118.426-.245.772-.275.772-.03 0-.157-.297-.285-.673-.806-2.266-2.27-4.423-3.656-5.353-2.005-1.346-5.533-1.623-8.638-.663-.521.158-.59.119 1.317.653 1.474.406 3.302 1.069 3.646 1.326.167.119.147.148-.275.406-.256.148-.462.297-.462.326 0 .04.462.238 1.022.436 1.582.583 2.712 1.078 2.653 1.177-.128.208-.825.09-1.336-.247-2.89-1.85-6.084-2.138-9.199-.812-1.376.584-3.155 1.782-4.354 2.93-.442.425-.491.504-.285.455 2.988-.693 6.683-1.237 6.683-.99 0 .04-.157.287-.354.554-.196.268-.344.495-.324.515.02.01.816-.07 1.76-.188 2.043-.257 3.046-.346 3.046-.257 0 .03-.275.237-.61.455l-.599.386 1.071.168c1.848.287 3.4.782 4.983 1.593 1.041.535 1.208.713.353.366-1.857-.742-4.107-1.375-5.886-1.632-.875-.13-1.563-.149-2.998-.11-1.66.04-1.995.08-2.997.347-2.034.524-3.695 1.386-5.317 2.751l-.776.653-1.307-.356a40.421 40.421 0 0 0-5.376-1.069c-1.395-.188-2.073-.217-4.815-.227-2.044 0-3.587.05-4.275.128-8.059.97-15.017 3.969-21.13 9.104-1.385 1.168-4.029 3.9-5.198 5.364-2.231 2.81-4.04 5.809-5.406 8.956-.54 1.247-1.238 3.097-1.474 3.938-.088.317-.206.544-.255.515-.148-.09-1.956-2.741-2.87-4.206-6.516-10.42-8.255-19.327-4.796-24.532.63-.94 1.799-2.127 2.654-2.691 1.73-1.148 3.99-1.9 6.486-2.158.973-.099.933-.128 1.68 1.129.521.88.659.95 2.634 1.236 2.034.287 3.872.406 7.538.466l3.351.059 1.504 2.316c1.503 2.305 1.513 2.325 1.808 2.266.167-.04.688-.139 1.15-.218l.845-.158.973-2.187.983-2.197 1.464-.07c5.376-.257 10.329-.82 12.422-1.424 2.378-.683 2.742-1.475 1.09-2.316-2.024-1.03-5.797-1.98-9.04-2.276-2.192-.198-3.735-.119-6.585.346-.835.129-2.26.337-3.155.446l-1.631.207-1.956-.96c-1.07-.524-2.732-1.335-3.675-1.8l-1.72-.842-1.229-.05-1.228-.039.786.831c.433.446 1.357 1.396 2.044 2.108 1.12 1.158 1.219 1.297 1.023 1.356-.118.03-1.091.139-2.163.228-2.181.188-1.995.217-2.82-.545l-.442-.405.324.059c.481.099.373-.02-.118-.129-.364-.079-.806-.395-2.545-1.86L24.119 1.24 21.642.737C19.991.4 19.185.272 19.215.36Zm59.958 15.933c-.207.376-.462.821-.57 1.01-.197.336-.197.336-.01.267 1.553-.654 3.675-1.227 5.444-1.485 1.091-.158 3.519-.326 3.44-.227-.03.03-.757.217-1.621.415-1.799.416-4.384 1.247-5.74 1.831l-.924.396-1.11-.624c-.61-.336-1.12-.643-1.12-.682 0-.07 2.358-1.564 2.486-1.564.049 0-.079.297-.275.663Zm-16.609.416c.944.099 2.231.277 2.555.346.108.02.393.07.64.109.48.079 2.367.524 2.417.564.01.02-.128.277-.315.574-.472.752-1.317 2.503-1.847 3.84-.433 1.068-.521 1.405-.393 1.405.029 0 .481-.376 1.002-.822 1.965-1.712 4.766-3.83 5.051-3.83.207 0 2.221.842 3.361 1.406l.482.237-.727.535c-1.042.752-2.782 2.563-3.519 3.641-1.179 1.762-1.955 3.642-2.388 5.8-.186.92-.216 1.415-.216 3.027 0 1.06.059 2.306.118 2.771.187 1.366.432 2.573.511 2.573.04 0 .177-.277.305-.623.845-2.316 2.79-6.452 3.783-8.065.315-.495.6-.91.64-.91.029 0 .225.375.431.84.207.466.403.842.433.832.03 0 .373-.624.747-1.386.953-1.91 2.761-5.185 2.86-5.185.049 0 .108.485.137 1.078l.05 1.08.461-.585c.246-.326.737-.89 1.091-1.276l.63-.693.431.366c.236.198.6.505.816.693l.374.336-.433.881c-.835 1.672-1.18 2.949-1.356 5.047-.275 3.256.59 7.59 2.201 10.935l.403.841.02-.693c.138-4.077.393-7.382.698-8.758l.078-.346.531.663c.62.762.629.752.727-.514.03-.466.157-1.703.275-2.742.177-1.593.236-1.89.344-1.79.443.365 2.585 3.285 3.362 4.561l.412.673-.462 1.702a55.266 55.266 0 0 1-3.872 10.41c-2.21 4.533-4.403 7.67-7.606 10.886-1.71 1.722-3.096 2.89-4.875 4.107-1.287.87-3.282 2.019-4.52 2.593l-.826.385-2.201-.099a89.95 89.95 0 0 0-3.175-.108c-.924 0-1.012-.02-1.69-.357-2.948-1.494-5.877-4.235-7.754-7.283-1.15-1.87-2.133-4.245-2.781-6.759-.708-2.711-.934-4.492-.993-7.768l-.049-2.622.501.544c.669.722 1.573 2.098 2.084 3.186.236.475.452.871.481.871.03 0 .108-.237.187-.524l.128-.515.118.297c.069.158.265 1.049.442 1.97l.324 1.672.325-.386c.176-.208.343-.357.383-.327.187.198.835 4.047.835 4.988 0 .672.118.692.364.089.933-2.286 1.238-5.374.717-7.402-.432-1.732-1.69-3.454-3.538-4.889a86.188 86.188 0 0 1-.923-.722c-.148-.129 1.287.296 2.103.623.403.158 1.15.505 1.65.772.492.267.905.445.905.406 0-.05-.069-.277-.148-.505-.167-.485-.176-.594-.059-.594.05 0 .747.643 1.563 1.435.806.782 1.494 1.405 1.533 1.366.03-.03.059-.277.059-.545 0-.356.04-.474.148-.474.206 0 2.122 1.94 3.233 3.295.53.643.983 1.148.992 1.138.07-.07-.265-2-.491-2.8-1.022-3.662-3.44-5.928-7.027-6.591-.963-.178-3.901-.159-4.982.03-.452.079-.816.118-.816.088s.364-.267.816-.524c.874-.495 2.339-1.069 3.243-1.277.304-.069.56-.148.56-.188 0-.03-.187-.158-.413-.267l-.422-.218h1.71l1.72-.01-.266-.276c-.147-.149-.265-.307-.265-.347 0-.099 2.761-.079 3.823.03.51.06.943.079.973.06.068-.08-1.327-.95-2.074-1.297-1.376-.643-2.044-.792-3.46-.792-1.05 0-1.405.04-1.984.228-.708.217-.718.217-1.072.04l-.354-.189.325-.188c.393-.237 2.32-1.049 2.89-1.227.215-.069.431-.158.48-.198.138-.128-.992-.247-2.22-.227-3.273.04-5.12 1.385-6.26 4.552l-.266.732-.187-.425c-.265-.604-.806-1.455-1.17-1.841-1.1-1.188-3.085-1.712-5.316-1.415-1.012.138-1.72.297-1.72.396 0 .04.58.227 1.298.435.707.198 1.542.485 1.837.624l.55.257-.314.158c-.177.09-.324.178-.324.218 0 .03.452.227 1.012.425.55.208 1.11.436 1.248.515l.246.139-.354.01c-.196 0-.383.03-.413.059-.039.04.148.217.403.415.531.396 1.494 1.317 1.494 1.425 0 .04-.275-.059-.62-.227a11.574 11.574 0 0 0-1.601-.544c-.855-.218-1.12-.248-2.201-.208-1.504.05-2.408.316-3.637 1.069-1.11.682-2.673 2.266-3.596 3.651-.718 1.069-1.062 1.672-1.003 1.742.02.02.393-.198.826-.495 1.582-1.069 4.098-2.444 4.226-2.316.02.03-.05.267-.158.525-.108.257-.186.485-.167.505.02.02.816-.367 1.779-.861.953-.495 1.76-.881 1.779-.861.02.02-.118.227-.305.465-.187.237-.314.455-.295.485.03.02.325-.03.669-.12.933-.227 2.496-.385 3.312-.316.402.03.746.07.766.1.02.019-.265.266-.629.553-.894.703-2.133 1.97-2.771 2.82-.678.901-1.327 2.277-1.543 3.266-.452 2.019-.06 5.126.924 7.274l.245.544.177-1.722c.167-1.672.521-3.78.668-4.047.06-.1.148-.04.344.217.148.198.305.337.344.307.05-.02.108-.277.148-.564.137-1.01.56-3.196.639-3.275.049-.05.137.138.206.415.108.455.295.693.295.376 0-.188.904-2.019 1.376-2.79.471-.772 1.572-2.257 1.631-2.207.02.02-.01.198-.059.386-.05.188-.187.91-.314 1.623-.177 1.069-.217 1.672-.217 3.612-.01 2.424.079 3.305.492 5.373.491 2.454 1.16 4.384 2.349 6.848 1.238 2.553 3.046 5.136 4.805 6.878l.649.633-1.229.327c-1.484.395-3.4 1.078-4.658 1.672l-.924.435-.796-.564c-1.356-.95-4.452-3.295-6.103-4.631-6.004-4.839-12.038-10.747-16.657-16.308l-.728-.881.285-1.099c1.455-5.779 4.089-10.687 8.373-15.546 1.612-1.84 4.659-4.394 7.145-5.997 1.229-.782 4.197-2.325 5.612-2.9 1.317-.534 3.606-1.286 4.756-1.563.462-.109 1.003-.237 1.19-.277.186-.05.54-.119.786-.158.245-.04.53-.09.638-.109.462-.099 1.661-.247 2.752-.346.649-.05 1.228-.12 1.278-.139.167-.079 4.58.04 5.503.139Zm26.77 1.435c-.02.02-.5.405-1.07.85-.57.456-1.622 1.416-2.34 2.148l-1.317 1.316-.481-.415c-.266-.218-.482-.436-.482-.476 0-.069 1.72-1.306 2.555-1.84.865-.544 3.41-1.84 3.136-1.583Zm2.566 1.058c0 1.752-.895 9.63-1.12 9.857-.02.02-.335-.357-.709-.832a55.818 55.818 0 0 0-1.434-1.741l-.757-.871.324-.91c.846-2.366 1.868-4.572 2.693-5.859l.442-.692.276.346c.196.237.285.445.285.702Zm-39.704 12.4c0 .109-1.12.762-1.258.732-.108-.03.098-.178.52-.406.748-.386.738-.386.738-.326Zm40.617 9.332c.787 2.375 1.12 3.75 1.494 6.135.236 1.524.266 1.465-.865 1.97-1.316.573-3.085 1.593-4.206 2.424-.501.376-.992.722-1.08.772-.109.069.029-.406.422-1.455 1.18-3.157 2.968-8.857 3.42-10.935.069-.307.157-.564.196-.564.04 0 .325.742.62 1.653Zm1.848 12.736c-.167 2.513-.177 2.592-.295 3.473-.059.435-.118.88-.128.99-.02.108-.226.356-.471.554-.649.534-2.094 2.078-2.88 3.107-.275.356-.953 1.346-.953 1.386 0 .03-.147.267-.324.524a9.832 9.832 0 0 0-.482.762c-.52 1.03-1.386 2.78-1.69 3.414-1.13 2.405-2.438 4.305-4.177 6.046-1.415 1.415-3.125 2.613-4.52 3.167-.305.119-.679.277-.846.337-1.09.455-2.653.9-4.855 1.385l-1.611.356-.698-.247c-5.051-1.791-12.176-5.354-17.503-8.748a104.87 104.87 0 0 0-1.808-1.138l-.344-.208.52-.228c1.534-.682 3.932-1.326 6.202-1.682 1.218-.188 4.02-.218 10.908-.129 2.811.03 3.45.01 4.354-.138 3.046-.495 5.248-1.405 7.724-3.187 1.258-.91 3.804-3.473 5.288-5.333 2.29-2.87 4.609-4.79 7.675-6.344l.855-.425.088.257c.05.149.04.98-.029 2.049Zm-66.17 11.528a142.367 142.367 0 0 0 8.944 7.521l1.69 1.316-.51.594c-1.121 1.296-1.809 2.157-2.615 3.275l-.835 1.168-1.13-1.118c-4.02-4.008-7.204-9.183-8.816-14.33-.147-.464-.354-1.108-.452-1.424-.098-.327-.186-.604-.186-.634 0-.02.58.505 1.287 1.178.708.673 1.887 1.781 2.624 2.454ZM97.728 63.1c1.12 3.365 1.592 6.482 1.356 8.936-.294 2.95-1.257 5.047-3.135 6.838-2.191 2.088-5.11 3.118-9.208 3.226l-1.867.05 1.297-1.247A39.342 39.342 0 0 0 96.224 64.96c.255-.762.57-1.801.697-2.306.128-.495.256-.91.295-.91.03 0 .266.613.511 1.355ZM46.005 78.894c1.808 1.217 3.567 2.385 3.911 2.583.334.208.678.435.757.514.078.09.147.13.147.1s.236.089.521.257c.944.564 3.843 2.207 4.51 2.553.374.188.67.376.67.406 0 .04-.188.217-.414.395-.55.446-1.621 1.416-2.014 1.831-.315.327-.325.327-.885.228-.314-.05-.697-.119-.865-.139a8.764 8.764 0 0 1-.609-.138c-.167-.05-.334-.07-.364-.03-.029.03-.058.01-.058-.04s-.08-.099-.167-.099c-.413-.02-2.86-.663-3.185-.83-.167-.09-.53-.228-1.267-.446-.03-.01-.118-.05-.197-.08-.206-.088-.727-.296-.786-.316-.079-.02-.58-.247-1.13-.495-.266-.128-.737-.326-1.032-.455-.492-.208-1.022-.495-2.506-1.326-.511-.297-2.369-1.504-2.575-1.682a16.75 16.75 0 0 0-.659-.485c-.304-.218-.55-.446-.55-.515 0-.257 1.926-2.79 3.322-4.364l.639-.722.746.544c.413.297 2.231 1.534 4.04 2.751Zm11.626 9.342a.515.515 0 0 1-.246 0c-.069-.03-.02-.05.118-.05.138 0 .187.02.128.05Zm3.046 0a.515.515 0 0 1-.245 0c-.07-.03-.02-.05.117-.05.138 0 .187.02.128.05Z" fill="#000"/></svg>